<svg width="1056" height="163" viewBox="0 0 1056 163" fill="none" xmlns="http://www.w3.org/2000/svg">
<path d="M0 0H1056V163H0V0Z" fill="#0A0A0A"/>
<path d="M365.215 114.005C361.57 114.005 358.388 113.389 355.667 112.157C352.998 110.976 350.893 109.359 349.353 107.306C347.813 105.201 346.915 102.814 346.658 100.145L355.051 99.606C355.41 101.916 356.411 103.738 358.054 105.073C359.748 106.408 362.084 107.075 365.061 107.075C367.166 107.075 368.808 106.87 369.989 106.459C371.221 106.048 372.119 105.458 372.684 104.688C373.249 103.867 373.531 102.943 373.531 101.916C373.531 100.427 372.71 99.144 371.067 98.066C369.424 96.9367 366.601 95.9613 362.597 95.14C359.055 94.4213 356.206 93.5487 354.05 92.522C351.894 91.444 350.328 90.1607 349.353 88.672C348.378 87.132 347.89 85.3353 347.89 83.282C347.941 81.1773 348.532 79.3293 349.661 77.738C350.842 76.1467 352.561 74.8377 354.82 73.811C352.51 72.7843 350.79 71.5523 349.661 70.115C348.583 68.6263 348.044 67.0093 348.044 65.264C348.044 62.7487 348.737 60.5927 350.123 58.796C351.509 56.948 353.434 55.5363 355.898 54.561C358.413 53.5857 361.365 53.098 364.753 53.098C367.987 53.098 370.81 53.637 373.223 54.715C375.687 55.7417 377.663 57.256 379.152 59.258C380.692 61.2087 381.642 63.6213 382.001 66.496L373.762 66.958C373.403 64.6993 372.376 62.9797 370.682 61.799C368.988 60.567 366.806 59.951 364.137 59.951C362.648 59.951 361.339 60.1563 360.21 60.567C359.081 60.9777 358.182 61.568 357.515 62.338C356.899 63.108 356.591 63.9807 356.591 64.956C356.591 66.496 357.233 67.7023 358.516 68.575C359.799 69.3963 362.135 70.2433 365.523 71.116C369.527 71.9887 372.735 72.9897 375.148 74.119C377.561 75.2483 379.306 76.6087 380.384 78.2C381.462 79.74 382.001 81.7163 382.001 84.129C382.001 86.1823 381.462 87.9277 380.384 89.365C379.357 90.751 377.792 91.8803 375.687 92.753C377.843 93.7797 379.409 95.063 380.384 96.603C381.411 98.0917 381.924 99.991 381.924 102.301C381.924 104.611 381.205 106.639 379.768 108.384C378.382 110.129 376.431 111.49 373.916 112.465C371.401 113.492 368.5 114.005 365.215 114.005ZM366.832 89.519C369.142 89.519 370.964 89.0057 372.299 87.979C373.685 86.901 374.378 85.515 374.378 83.821C374.378 82.281 373.788 81.0233 372.607 80.048C371.426 79.0727 369.963 78.354 368.218 77.892C366.473 77.43 364.727 77.199 362.982 77.199C361.647 77.199 360.415 77.4557 359.286 77.969C358.208 78.4823 357.335 79.1753 356.668 80.048C356.001 80.8693 355.667 81.7933 355.667 82.82C355.667 83.898 356.001 84.9503 356.668 85.977C357.387 87.0037 358.567 87.8507 360.21 88.518C361.853 89.134 364.06 89.4677 366.832 89.519ZM433.323 110.232C428.395 110.232 424.058 109.103 420.31 106.844C416.563 104.534 413.637 101.249 411.532 96.988C409.428 92.7273 408.375 87.6453 408.375 81.742C408.375 75.89 409.402 70.8337 411.455 66.573C413.56 62.261 416.486 58.95 420.233 56.64C423.981 54.2787 428.37 53.098 433.4 53.098C440.176 53.098 445.438 54.792 449.185 58.18C452.933 61.568 455.371 66.265 456.5 72.271L447.799 72.733C447.081 68.9857 445.541 66.0597 443.179 63.955C440.818 61.799 437.558 60.721 433.4 60.721C430.064 60.721 427.163 61.568 424.699 63.262C422.287 64.956 420.387 67.3687 419.001 70.5C417.667 73.6313 416.999 77.3787 416.999 81.742C416.999 86.1053 417.667 89.8527 419.001 92.984C420.387 96.1153 422.312 98.5023 424.776 100.145C427.24 101.788 430.089 102.609 433.323 102.609C437.738 102.609 441.152 101.454 443.564 99.144C446.028 96.7827 447.568 93.5487 448.184 89.442L456.885 89.904C456.218 94.062 454.883 97.6553 452.881 100.684C450.879 103.713 448.236 106.074 444.95 107.768C441.665 109.411 437.789 110.232 433.323 110.232ZM465.429 109V54.33H473.591V77.276L472.59 77.122C473.052 74.812 473.899 72.9383 475.131 71.501C476.363 70.0123 477.878 68.9087 479.674 68.19C481.471 67.4713 483.447 67.112 485.603 67.112C488.581 67.112 491.096 67.7793 493.149 69.114C495.203 70.3973 496.743 72.2197 497.769 74.581C498.847 76.9423 499.386 79.6373 499.386 82.666V109H491.224V84.822C491.224 81.126 490.583 78.4053 489.299 76.66C488.067 74.8633 486.117 73.965 483.447 73.965C480.47 73.965 478.083 74.9147 476.286 76.814C474.49 78.662 473.591 81.3827 473.591 84.976V109H465.429ZM521.568 109.924C517.308 109.924 513.894 108.949 511.327 106.998C508.812 105.047 507.554 102.301 507.554 98.759C507.554 95.217 508.607 92.4707 510.711 90.52C512.867 88.518 516.178 87.0807 520.644 86.208L534.735 83.513C534.735 80.3303 533.991 77.969 532.502 76.429C531.014 74.8377 528.806 74.042 525.88 74.042C523.262 74.042 521.209 74.6323 519.72 75.813C518.232 76.9423 517.205 78.6363 516.64 80.895L508.247 80.356C509.017 76.2493 510.917 73.0153 513.945 70.654C517.025 68.2927 521.004 67.112 525.88 67.112C531.424 67.112 535.634 68.6007 538.508 71.578C541.434 74.504 542.897 78.6363 542.897 83.975V99.914C542.897 100.889 543.051 101.582 543.359 101.993C543.719 102.352 544.283 102.532 545.053 102.532H546.516V109C546.26 109.051 545.849 109.103 545.284 109.154C544.72 109.205 544.129 109.231 543.513 109.231C541.768 109.231 540.254 108.949 538.97 108.384C537.738 107.819 536.814 106.895 536.198 105.612C535.582 104.277 535.274 102.506 535.274 100.299L536.121 100.684C535.711 102.481 534.812 104.072 533.426 105.458C532.092 106.844 530.372 107.948 528.267 108.769C526.214 109.539 523.981 109.924 521.568 109.924ZM522.877 103.456C525.341 103.456 527.446 102.994 529.191 102.07C530.937 101.095 532.297 99.76 533.272 98.066C534.248 96.372 534.735 94.447 534.735 92.291V89.673L522.723 91.983C520.259 92.445 518.514 93.1893 517.487 94.216C516.512 95.1913 516.024 96.449 516.024 97.989C516.024 99.7343 516.615 101.095 517.795 102.07C519.027 102.994 520.721 103.456 522.877 103.456ZM553.408 120.55V68.036H561.108L561.339 76.814L560.415 76.352C561.441 73.3233 563.135 71.039 565.497 69.499C567.858 67.9077 570.579 67.112 573.659 67.112C577.663 67.112 580.948 68.113 583.515 70.115C586.133 72.0657 588.058 74.658 589.29 77.892C590.573 81.126 591.215 84.668 591.215 88.518C591.215 92.368 590.573 95.91 589.29 99.144C588.058 102.378 586.133 104.996 583.515 106.998C580.948 108.949 577.663 109.924 573.659 109.924C571.605 109.924 569.68 109.565 567.884 108.846C566.087 108.127 564.547 107.126 563.264 105.843C562.032 104.508 561.159 102.943 560.646 101.146L561.57 100.222V120.55H553.408ZM572.196 102.84C575.481 102.84 578.048 101.582 579.896 99.067C581.795 96.5517 582.745 93.0353 582.745 88.518C582.745 84.0007 581.795 80.4843 579.896 77.969C578.048 75.4537 575.481 74.196 572.196 74.196C570.04 74.196 568.166 74.735 566.575 75.813C564.983 76.8397 563.751 78.431 562.879 80.587C562.006 82.743 561.57 85.3867 561.57 88.518C561.57 91.6493 561.98 94.293 562.802 96.449C563.674 98.605 564.906 100.222 566.498 101.3C568.14 102.327 570.04 102.84 572.196 102.84ZM613.707 109C609.805 109 606.931 108.102 605.083 106.305C603.235 104.508 602.311 101.711 602.311 97.912V58.411H610.473V97.296C610.473 99.1953 610.883 100.504 611.705 101.223C612.526 101.942 613.784 102.301 615.478 102.301H621.33V109H613.707ZM596.074 74.735V68.036H621.33V74.735H596.074ZM645.316 109.924C641.312 109.924 637.847 109.051 634.921 107.306C632.046 105.561 629.813 103.071 628.222 99.837C626.682 96.603 625.912 92.83 625.912 88.518C625.912 84.206 626.682 80.4587 628.222 77.276C629.813 74.042 632.046 71.5523 634.921 69.807C637.795 68.0103 641.183 67.112 645.085 67.112C648.781 67.112 652.04 67.9847 654.864 69.73C657.687 71.424 659.869 73.888 661.409 77.122C663 80.356 663.796 84.2573 663.796 88.826V90.905H634.382C634.587 94.909 635.639 97.912 637.539 99.914C639.489 101.916 642.107 102.917 645.393 102.917C647.805 102.917 649.807 102.352 651.399 101.223C652.99 100.094 654.094 98.5793 654.71 96.68L663.18 97.219C662.102 101.018 659.971 104.098 656.789 106.459C653.657 108.769 649.833 109.924 645.316 109.924ZM634.382 84.745H655.172C654.915 81.1003 653.863 78.4053 652.015 76.66C650.218 74.9147 647.908 74.042 645.085 74.042C642.159 74.042 639.746 74.966 637.847 76.814C635.999 78.6107 634.844 81.2543 634.382 84.745ZM672.066 109V68.036H679.535L679.843 78.893L679.15 78.662C679.715 74.966 680.844 72.271 682.538 70.577C684.283 68.883 686.619 68.036 689.545 68.036H693.472V75.351H689.545C687.492 75.351 685.772 75.6847 684.386 76.352C683 77.0193 681.948 78.046 681.229 79.432C680.562 80.818 680.228 82.6147 680.228 84.822V109H672.066Z" fill="white"/>
</svg>
